<?xml version="1.0" encoding="utf-8"?>
<!-- Generator: Adobe Illustrator 15.0.0, SVG Export Plug-In . SVG Version: 6.00 Build 0)  -->
<!DOCTYPE svg PUBLIC "-//W3C//DTD SVG 1.1//EN" "http://www.w3.org/Graphics/SVG/1.1/DTD/svg11.dtd">
<svg version="1.1" id="Ebene_1" xmlns="http://www.w3.org/2000/svg" xmlns:xlink="http://www.w3.org/1999/xlink" x="0px" y="0px"
	 width="275px" height="85px" viewBox="0 0 275 85" enable-background="new 0 0 275 85" xml:space="preserve">
<g>
	<path fill="#0A70B0" d="M91.012,40.17c0,0.855-0.348,1.448-1.045,1.779c-0.696,0.33-1.815,0.497-3.355,0.497h-1.528
		c0.09,0.588,0.375,1.057,0.856,1.405c0.482,0.348,1.071,0.521,1.767,0.521c0.487,0,0.995-0.06,1.521-0.182
		c0.527-0.123,0.978-0.355,1.351-0.699h0.085v0.729c0,0.301-0.055,0.578-0.165,0.833c-0.11,0.253-0.299,0.478-0.565,0.671
		c-0.266,0.193-0.617,0.342-1.053,0.456c-0.436,0.108-0.971,0.165-1.605,0.165c-0.583,0-1.152-0.111-1.708-0.331
		c-0.554-0.222-1.047-0.538-1.478-0.953c-0.429-0.411-0.775-0.907-1.036-1.485c-0.261-0.578-0.391-1.227-0.391-1.945
		c0-0.782,0.114-1.488,0.34-2.121c0.227-0.631,0.543-1.167,0.947-1.608c0.405-0.443,0.889-0.78,1.453-1.015
		c0.564-0.235,1.182-0.353,1.856-0.353c0.486,0,0.956,0.084,1.407,0.25c0.448,0.168,0.848,0.408,1.196,0.719
		c0.349,0.311,0.627,0.693,0.837,1.146C90.907,39.102,91.012,39.608,91.012,40.17 M88.821,39.889c0-0.476-0.161-0.829-0.479-1.061
		c-0.32-0.232-0.752-0.349-1.296-0.349c-0.277,0-0.534,0.055-0.773,0.166c-0.238,0.11-0.445,0.254-0.62,0.433
		c-0.176,0.178-0.312,0.39-0.408,0.633c-0.097,0.243-0.149,0.499-0.161,0.764l-0.018,0.315h1.037c0.56,0,1.016-0.017,1.363-0.051
		c0.348-0.034,0.623-0.086,0.824-0.157c0.201-0.071,0.341-0.164,0.416-0.281C88.783,40.185,88.821,40.048,88.821,39.889"/>
	<path fill="#0A70B0" d="M100.84,42.446c0,0.588-0.098,1.121-0.293,1.597c-0.194,0.477-0.484,0.885-0.87,1.228
		c-0.385,0.343-0.855,0.605-1.411,0.793c-0.554,0.188-1.191,0.282-1.91,0.282c-1.206,0-2.114-0.216-2.723-0.646
		s-0.913-1-0.913-1.709V42.93h0.051c0.408,0.363,0.88,0.668,1.418,0.918c0.538,0.251,1.172,0.373,1.903,0.373
		c0.895,0,1.514-0.143,1.855-0.428c0.343-0.285,0.514-0.667,0.514-1.145c0-0.202-0.029-0.38-0.089-0.533
		c-0.059-0.152-0.187-0.296-0.382-0.43c-0.196-0.133-0.482-0.257-0.862-0.374c-0.38-0.116-0.881-0.242-1.504-0.377
		c-1.02-0.222-1.802-0.583-2.349-1.088c-0.546-0.504-0.819-1.164-0.819-1.979c0-0.498,0.102-0.979,0.306-1.444
		c0.204-0.464,0.497-0.876,0.879-1.236c0.383-0.36,0.853-0.646,1.411-0.857c0.558-0.212,1.182-0.319,1.873-0.319
		c0.697,0,1.274,0.066,1.733,0.2c0.46,0.133,0.826,0.303,1.105,0.51c0.277,0.208,0.471,0.442,0.582,0.705
		c0.11,0.263,0.165,0.518,0.165,0.761v1.096h-0.068c-0.73-0.782-1.762-1.173-3.092-1.173c-0.929,0-1.582,0.139-1.958,0.42
		c-0.376,0.281-0.564,0.653-0.564,1.118c0,0.169,0.039,0.331,0.119,0.484c0.079,0.153,0.223,0.292,0.433,0.42
		c0.208,0.128,0.494,0.249,0.854,0.364c0.359,0.117,0.816,0.231,1.372,0.345c1.093,0.232,1.905,0.622,2.438,1.167
		C100.574,40.975,100.84,41.646,100.84,42.446"/>
	<path fill="#0A70B0" d="M111.713,41.155c0,0.753-0.093,1.447-0.28,2.08c-0.187,0.636-0.457,1.184-0.811,1.646
		c-0.355,0.461-0.795,0.82-1.321,1.078c-0.528,0.256-1.133,0.387-1.818,0.387c-0.52,0-0.987-0.133-1.397-0.396
		c-0.411-0.265-0.732-0.596-0.965-0.998v4.139h-0.729c-0.21,0-0.414-0.037-0.613-0.11c-0.198-0.075-0.372-0.184-0.522-0.324
		c-0.15-0.143-0.271-0.31-0.365-0.504c-0.094-0.197-0.141-0.422-0.141-0.677v-5.674c0-0.777,0.091-1.49,0.272-2.141
		c0.182-0.651,0.463-1.208,0.846-1.668c0.382-0.462,0.869-0.821,1.461-1.075c0.591-0.256,1.298-0.383,2.119-0.383
		c0.629,0,1.204,0.131,1.724,0.391c0.521,0.261,0.97,0.604,1.347,1.032c0.376,0.427,0.669,0.92,0.879,1.478
		C111.608,39.993,111.713,40.565,111.713,41.155 M109.31,41.766c0-1.115-0.183-1.922-0.548-2.421
		c-0.366-0.498-0.925-0.747-1.678-0.747c-0.651,0-1.146,0.252-1.486,0.757c-0.341,0.503-0.51,1.164-0.51,1.979
		c0,0.94,0.211,1.665,0.633,2.175c0.42,0.51,0.98,0.765,1.677,0.765c0.566,0,1.026-0.229,1.381-0.688
		C109.132,43.126,109.31,42.519,109.31,41.766"/>
	<path fill="#0A70B0" d="M113.089,41.614c0-0.708,0.1-1.37,0.298-1.984c0.197-0.614,0.494-1.151,0.887-1.609
		c0.394-0.459,0.881-0.821,1.462-1.087c0.58-0.267,1.247-0.4,1.999-0.4c0.709,0,1.336,0.131,1.886,0.392
		c0.549,0.26,1.012,0.61,1.39,1.048c0.376,0.439,0.663,0.942,0.862,1.512c0.198,0.569,0.296,1.168,0.296,1.797
		c0,0.708-0.102,1.37-0.305,1.984c-0.204,0.614-0.5,1.147-0.887,1.604c-0.388,0.457-0.873,0.813-1.453,1.078
		c-0.581,0.264-1.248,0.396-2.001,0.396c-0.708,0-1.337-0.133-1.886-0.396c-0.549-0.265-1.012-0.611-1.389-1.043
		c-0.377-0.436-0.665-0.937-0.862-1.505C113.189,42.832,113.089,42.236,113.089,41.614 M119.75,41.614
		c0-0.941-0.18-1.675-0.54-2.206c-0.36-0.529-0.921-0.794-1.687-0.794c-0.674,0-1.178,0.25-1.512,0.748
		c-0.334,0.497-0.501,1.138-0.501,1.919c0,0.935,0.176,1.663,0.531,2.187c0.354,0.523,0.919,0.787,1.694,0.787
		c0.686,0,1.192-0.25,1.521-0.748C119.585,43.01,119.75,42.378,119.75,41.614"/>
	<path fill="#0A70B0" d="M129.322,39.014c-0.176-0.068-0.371-0.13-0.585-0.187c-0.216-0.056-0.474-0.085-0.773-0.085
		c-0.521,0-0.921,0.152-1.199,0.458c-0.276,0.306-0.416,0.818-0.416,1.537v5.394h-0.645c-0.521,0-0.935-0.126-1.245-0.382
		c-0.31-0.254-0.463-0.625-0.463-1.112v-4.315c0-0.464,0.065-0.92,0.192-1.367c0.127-0.447,0.329-0.838,0.607-1.172
		c0.278-0.334,0.637-0.606,1.079-0.815c0.441-0.21,0.971-0.314,1.588-0.314c0.357,0,0.66,0.046,0.909,0.139
		c0.249,0.094,0.448,0.212,0.599,0.357c0.149,0.145,0.26,0.309,0.331,0.494c0.072,0.184,0.106,0.363,0.106,0.538v0.833H129.322z"/>
	<path fill="#0A70B0" d="M130.792,37.12c0-0.232,0.013-0.432,0.039-0.599c0.025-0.167,0.063-0.32,0.114-0.458
		c0.051-0.139,0.12-0.269,0.208-0.392c0.088-0.121,0.194-0.259,0.319-0.412c0.164-0.187,0.34-0.341,0.531-0.463
		c0.19-0.121,0.378-0.183,0.565-0.183h0.544v2.124h3.253v0.959c0,0.246-0.113,0.491-0.339,0.74
		c-0.228,0.248-0.577,0.373-1.054,0.373h-1.859v3.67c0,0.612,0.126,1.047,0.381,1.303c0.255,0.259,0.622,0.388,1.096,0.388
		c0.765,0,1.325-0.109,1.682-0.332h0.094v0.834c0,0.486-0.171,0.867-0.515,1.145c-0.343,0.279-0.855,0.418-1.542,0.418
		c-1.194,0-2.079-0.305-2.654-0.912c-0.574-0.609-0.862-1.465-0.862-2.563V37.12z"/>
	<path fill="#0A70B0" d="M144.494,43.176c0,0.998-0.338,1.775-1.012,2.332s-1.643,0.838-2.904,0.838
		c-0.434,0-0.828-0.055-1.193-0.158c-0.365-0.104-0.686-0.241-0.955-0.411c-0.273-0.173-0.484-0.367-0.634-0.585
		c-0.15-0.223-0.226-0.455-0.226-0.699v-1.053h0.085c0.125,0.113,0.29,0.226,0.493,0.335c0.203,0.112,0.434,0.208,0.688,0.29
		s0.523,0.146,0.805,0.191c0.277,0.045,0.559,0.068,0.836,0.068c1.131,0,1.699-0.344,1.699-1.027c0-0.139-0.025-0.254-0.078-0.354
		c-0.051-0.098-0.145-0.189-0.285-0.271c-0.137-0.083-0.334-0.156-0.59-0.218s-0.586-0.123-0.992-0.186
		c-0.996-0.136-1.734-0.407-2.219-0.808c-0.481-0.402-0.721-0.963-0.721-1.682c0-0.436,0.095-0.853,0.283-1.249
		c0.189-0.396,0.461-0.742,0.807-1.036c0.35-0.294,0.768-0.529,1.256-0.702c0.486-0.172,1.031-0.259,1.637-0.259
		c0.533,0,0.986,0.062,1.363,0.182c0.379,0.123,0.688,0.281,0.93,0.476c0.246,0.195,0.422,0.413,0.531,0.65
		c0.113,0.237,0.166,0.466,0.166,0.688v0.883h-0.084c-0.244-0.243-0.613-0.449-1.105-0.616s-1.018-0.25-1.58-0.25
		c-0.713,0-1.203,0.099-1.473,0.297c-0.268,0.198-0.402,0.448-0.402,0.748c0,0.113,0.023,0.214,0.07,0.302
		c0.049,0.087,0.139,0.167,0.273,0.237c0.133,0.071,0.32,0.134,0.564,0.191c0.242,0.058,0.566,0.119,0.967,0.187
		c0.992,0.164,1.74,0.462,2.244,0.892C144.242,41.832,144.494,42.424,144.494,43.176"/>
	<path fill="#0A70B0" d="M159.42,37.399c-0.189-0.243-0.414-0.444-0.682-0.607c-0.266-0.162-0.549-0.294-0.854-0.397
		c-0.303-0.105-0.604-0.18-0.904-0.222c-0.299-0.042-0.578-0.063-0.832-0.063c-0.531,0-1.025,0.094-1.479,0.28
		c-0.453,0.187-0.846,0.449-1.176,0.785c-0.332,0.337-0.59,0.741-0.773,1.211c-0.184,0.471-0.275,0.993-0.275,1.572
		c0,0.697,0.092,1.308,0.275,1.835c0.184,0.524,0.441,0.966,0.773,1.322c0.33,0.352,0.73,0.617,1.203,0.791
		c0.467,0.176,0.98,0.264,1.537,0.264c0.287,0,0.586-0.029,0.895-0.09c0.309-0.059,0.604-0.136,0.879-0.236
		c0.277-0.1,0.537-0.219,0.773-0.357c0.238-0.139,0.439-0.295,0.605-0.472h0.082v0.892c0,0.408-0.107,0.76-0.322,1.055
		s-0.494,0.538-0.836,0.729c-0.344,0.192-0.723,0.331-1.141,0.416c-0.414,0.085-0.832,0.128-1.252,0.128
		c-0.787,0-1.537-0.141-2.25-0.424c-0.713-0.284-1.34-0.684-1.877-1.198c-0.539-0.514-0.965-1.139-1.279-1.87
		c-0.314-0.729-0.473-1.543-0.473-2.436c0-0.918,0.148-1.759,0.443-2.524c0.295-0.764,0.709-1.426,1.244-1.983
		c0.533-0.558,1.176-0.99,1.926-1.296c0.746-0.306,1.572-0.458,2.479-0.458c0.486,0,0.936,0.048,1.348,0.144
		c0.41,0.097,0.766,0.247,1.07,0.451c0.301,0.203,0.537,0.46,0.703,0.769c0.168,0.308,0.25,0.664,0.25,1.065v0.925H159.42z"/>
	<path fill="#0A70B0" d="M166.164,39.014c-0.178-0.068-0.373-0.13-0.586-0.187c-0.215-0.056-0.475-0.085-0.775-0.085
		c-0.52,0-0.918,0.152-1.197,0.458c-0.277,0.306-0.416,0.818-0.416,1.537v5.394h-0.645c-0.521,0-0.938-0.126-1.246-0.382
		c-0.309-0.254-0.461-0.625-0.461-1.112v-4.315c0-0.464,0.063-0.92,0.189-1.367c0.127-0.447,0.33-0.838,0.609-1.172
		c0.275-0.334,0.637-0.606,1.076-0.815c0.441-0.21,0.973-0.314,1.59-0.314c0.357,0,0.66,0.046,0.908,0.139
		c0.25,0.094,0.449,0.212,0.6,0.357s0.26,0.309,0.332,0.494c0.068,0.184,0.105,0.363,0.105,0.538v0.833H166.164z"/>
	<path fill="#0A70B0" d="M172.926,44.111c-0.441,1.035-0.838,1.88-1.186,2.534c-0.35,0.655-0.688,1.167-1.016,1.537
		c-0.328,0.373-0.664,0.63-1.008,0.774c-0.342,0.145-0.721,0.216-1.141,0.216c-0.441,0-0.828-0.13-1.152-0.389
		c-0.326-0.262-0.488-0.613-0.488-1.055v-0.452l1.326-0.082c0.209-0.014,0.389-0.047,0.539-0.106
		c0.148-0.061,0.285-0.154,0.408-0.281c0.119-0.128,0.236-0.298,0.348-0.511c0.111-0.212,0.23-0.486,0.359-0.826
		c-0.316-0.467-0.65-1.078-1.004-1.836c-0.355-0.759-0.689-1.558-1.008-2.398c-0.316-0.842-0.594-1.663-0.832-2.464
		c-0.24-0.801-0.4-1.479-0.484-2.034h1.24c0.322,0,0.615,0.099,0.875,0.297c0.258,0.199,0.422,0.465,0.484,0.798
		c0.158,0.907,0.402,1.827,0.734,2.761c0.332,0.936,0.711,1.818,1.143,2.649c0.186-0.44,0.379-0.936,0.572-1.485
		c0.197-0.549,0.379-1.118,0.549-1.703c0.17-0.585,0.314-1.167,0.438-1.742c0.121-0.574,0.211-1.099,0.268-1.575h1.01
		c0.369,0,0.645,0.087,0.824,0.264c0.182,0.175,0.273,0.452,0.273,0.831c0,0.165-0.043,0.413-0.125,0.744
		c-0.08,0.331-0.188,0.7-0.313,1.104c-0.129,0.405-0.273,0.834-0.434,1.287c-0.16,0.452-0.32,0.885-0.473,1.295
		s-0.295,0.781-0.428,1.111C173.094,43.708,172.992,43.953,172.926,44.111"/>
	<path fill="#0A70B0" d="M185.342,41.155c0,0.753-0.092,1.447-0.279,2.08c-0.188,0.636-0.455,1.184-0.811,1.646
		c-0.355,0.461-0.793,0.82-1.32,1.078c-0.525,0.256-1.135,0.387-1.818,0.387c-0.521,0-0.986-0.133-1.398-0.396
		c-0.408-0.265-0.73-0.596-0.963-0.998v4.139h-0.73c-0.209,0-0.414-0.037-0.611-0.11c-0.197-0.075-0.373-0.184-0.523-0.324
		c-0.15-0.143-0.271-0.31-0.365-0.504c-0.094-0.197-0.139-0.422-0.139-0.677v-5.674c0-0.777,0.09-1.49,0.271-2.141
		c0.182-0.651,0.463-1.208,0.844-1.668c0.385-0.462,0.871-0.821,1.463-1.075c0.59-0.256,1.297-0.383,2.117-0.383
		c0.631,0,1.205,0.131,1.727,0.391c0.52,0.261,0.969,0.604,1.346,1.032c0.377,0.427,0.67,0.92,0.879,1.478
		C185.24,39.993,185.342,40.565,185.342,41.155 M182.939,41.766c0-1.115-0.184-1.922-0.547-2.421
		c-0.365-0.498-0.926-0.747-1.68-0.747c-0.65,0-1.146,0.252-1.486,0.757c-0.338,0.503-0.51,1.164-0.51,1.979
		c0,0.94,0.211,1.665,0.633,2.175c0.424,0.51,0.982,0.765,1.678,0.765c0.566,0,1.027-0.229,1.379-0.688
		C182.762,43.126,182.939,42.519,182.939,41.766"/>
	<path fill="#0A70B0" d="M187.246,37.12c0-0.232,0.012-0.432,0.039-0.599c0.025-0.167,0.063-0.32,0.113-0.458
		c0.053-0.139,0.121-0.269,0.209-0.392c0.088-0.121,0.193-0.259,0.318-0.412c0.164-0.187,0.342-0.341,0.531-0.463
		c0.189-0.121,0.377-0.183,0.563-0.183h0.547v2.124h3.252v0.959c0,0.246-0.115,0.491-0.34,0.74
		c-0.225,0.248-0.578,0.373-1.053,0.373h-1.859v3.67c0,0.612,0.125,1.047,0.381,1.303c0.256,0.259,0.621,0.388,1.096,0.388
		c0.764,0,1.326-0.109,1.682-0.332h0.094v0.834c0,0.486-0.172,0.867-0.516,1.145c-0.342,0.279-0.855,0.418-1.541,0.418
		c-1.193,0-2.078-0.305-2.652-0.912c-0.576-0.609-0.863-1.465-0.863-2.563V37.12z"/>
	<path fill="#0A70B0" d="M193.762,41.614c0-0.708,0.1-1.37,0.299-1.984c0.197-0.614,0.492-1.151,0.887-1.609
		c0.391-0.459,0.881-0.821,1.459-1.087c0.58-0.267,1.248-0.4,2.004-0.4c0.705,0,1.334,0.131,1.883,0.392
		c0.551,0.26,1.014,0.61,1.391,1.048c0.375,0.439,0.662,0.942,0.859,1.512c0.199,0.569,0.299,1.168,0.299,1.797
		c0,0.708-0.102,1.37-0.305,1.984c-0.205,0.614-0.5,1.147-0.887,1.604c-0.389,0.457-0.875,0.813-1.455,1.078
		c-0.58,0.264-1.246,0.396-2,0.396c-0.707,0-1.336-0.133-1.885-0.396c-0.551-0.265-1.012-0.611-1.389-1.043
		c-0.379-0.436-0.664-0.937-0.861-1.505C193.861,42.832,193.762,42.236,193.762,41.614 M200.422,41.614
		c0-0.941-0.18-1.675-0.541-2.206c-0.359-0.529-0.922-0.794-1.686-0.794c-0.674,0-1.178,0.25-1.512,0.748
		c-0.334,0.497-0.502,1.138-0.502,1.919c0,0.935,0.178,1.663,0.531,2.187s0.918,0.787,1.697,0.787c0.684,0,1.189-0.25,1.52-0.748
		C200.256,43.01,200.422,42.378,200.422,41.614"/>
	<path fill="#0A70B0" d="M211.76,39.762c-0.164-0.267-0.461-0.494-0.891-0.684c-0.432-0.19-0.979-0.284-1.648-0.284
		c-0.34,0-0.664,0.064-0.977,0.19c-0.311,0.128-0.584,0.305-0.814,0.532c-0.232,0.226-0.42,0.49-0.557,0.791
		c-0.141,0.299-0.209,0.625-0.209,0.976c0,0.856,0.23,1.547,0.693,2.076c0.461,0.53,1.094,0.796,1.898,0.796
		c0.674,0,1.215-0.092,1.617-0.271c0.404-0.184,0.689-0.382,0.854-0.604h0.084v1.079c0,0.564-0.252,1.031-0.756,1.396
		c-0.504,0.364-1.18,0.548-2.027,0.548c-0.652,0-1.268-0.117-1.844-0.354c-0.578-0.234-1.086-0.562-1.521-0.98
		c-0.438-0.42-0.785-0.912-1.047-1.482c-0.258-0.568-0.389-1.188-0.389-1.857c0-0.672,0.113-1.311,0.34-1.914
		c0.225-0.603,0.557-1.131,0.99-1.584s0.963-0.813,1.592-1.08c0.629-0.266,1.342-0.399,2.139-0.399c0.371,0,0.711,0.052,1.025,0.158
		c0.314,0.105,0.584,0.249,0.811,0.434c0.227,0.183,0.404,0.397,0.531,0.641c0.127,0.244,0.193,0.503,0.193,0.782v1.095H211.76z"/>
	<path fill="#0A70B0" d="M221.785,41.919c0,2.952-1.369,4.427-4.105,4.427c-0.582,0-1.125-0.094-1.629-0.282
		c-0.504-0.188-0.941-0.462-1.313-0.829c-0.371-0.363-0.662-0.809-0.879-1.337c-0.217-0.526-0.322-1.13-0.322-1.816v-5.343h0.434
		c0.672,0,1.164,0.139,1.471,0.416c0.311,0.279,0.465,0.697,0.465,1.258v3.439c0,0.861,0.182,1.48,0.547,1.857
		c0.365,0.376,0.816,0.564,1.348,0.564c0.486,0,0.879-0.177,1.18-0.53c0.301-0.355,0.451-0.932,0.451-1.729v-5.275h0.426
		c0.68,0,1.17,0.139,1.473,0.416c0.303,0.279,0.455,0.697,0.455,1.258V41.919z"/>
	<path fill="#0A70B0" d="M229.361,39.014c-0.176-0.068-0.371-0.13-0.586-0.187s-0.473-0.085-0.773-0.085
		c-0.521,0-0.92,0.152-1.197,0.458s-0.414,0.818-0.414,1.537v5.394h-0.648c-0.52,0-0.934-0.126-1.244-0.382
		c-0.309-0.254-0.463-0.625-0.463-1.112v-4.315c0-0.464,0.064-0.92,0.191-1.367c0.127-0.447,0.33-0.838,0.607-1.172
		s0.639-0.606,1.078-0.815c0.443-0.21,0.971-0.314,1.59-0.314c0.355,0,0.658,0.046,0.908,0.139c0.248,0.094,0.449,0.212,0.6,0.357
		s0.26,0.309,0.33,0.494c0.07,0.184,0.107,0.363,0.107,0.538v0.833H229.361z"/>
	<path fill="#0A70B0" d="M236.072,39.014c-0.176-0.068-0.371-0.13-0.588-0.187c-0.215-0.056-0.471-0.085-0.771-0.085
		c-0.521,0-0.92,0.152-1.197,0.458s-0.416,0.818-0.416,1.537v5.394h-0.646c-0.521,0-0.936-0.126-1.242-0.382
		c-0.313-0.254-0.465-0.625-0.465-1.112v-4.315c0-0.464,0.064-0.92,0.191-1.367c0.125-0.447,0.33-0.838,0.607-1.172
		s0.637-0.606,1.078-0.815c0.441-0.21,0.973-0.314,1.59-0.314c0.355,0,0.658,0.046,0.908,0.139c0.248,0.094,0.447,0.212,0.598,0.357
		s0.26,0.309,0.332,0.494c0.07,0.184,0.107,0.363,0.107,0.538v0.833H236.072z"/>
	<path fill="#0A70B0" d="M245.365,40.17c0,0.855-0.35,1.448-1.045,1.779c-0.695,0.33-1.814,0.497-3.355,0.497h-1.527
		c0.088,0.588,0.375,1.057,0.855,1.405c0.48,0.348,1.07,0.521,1.768,0.521c0.486,0,0.994-0.06,1.521-0.182
		c0.527-0.123,0.977-0.355,1.35-0.699h0.084v0.729c0,0.301-0.055,0.578-0.164,0.833c-0.111,0.253-0.299,0.478-0.566,0.671
		c-0.266,0.193-0.617,0.342-1.055,0.456c-0.434,0.108-0.969,0.165-1.604,0.165c-0.584,0-1.152-0.111-1.709-0.331
		c-0.553-0.222-1.047-0.538-1.477-0.953c-0.43-0.411-0.775-0.907-1.035-1.485s-0.393-1.227-0.393-1.945
		c0-0.782,0.115-1.488,0.34-2.121c0.227-0.631,0.545-1.167,0.947-1.608c0.406-0.443,0.891-0.78,1.453-1.015
		c0.564-0.235,1.182-0.353,1.855-0.353c0.488,0,0.957,0.084,1.408,0.25c0.449,0.168,0.848,0.408,1.195,0.719
		c0.35,0.311,0.627,0.693,0.836,1.146C245.26,39.102,245.365,39.608,245.365,40.17 M243.174,39.889c0-0.476-0.16-0.829-0.482-1.061
		c-0.318-0.232-0.75-0.349-1.295-0.349c-0.277,0-0.535,0.055-0.771,0.166c-0.238,0.11-0.445,0.254-0.619,0.433
		c-0.178,0.178-0.314,0.39-0.408,0.633c-0.096,0.243-0.15,0.499-0.16,0.764l-0.02,0.315h1.039c0.559,0,1.012-0.017,1.361-0.051
		c0.348-0.034,0.623-0.086,0.824-0.157c0.199-0.071,0.338-0.164,0.416-0.281C243.135,40.185,243.174,40.048,243.174,39.889"/>
	<path fill="#0A70B0" d="M254.795,46.132c-0.523,0-0.936-0.145-1.246-0.433c-0.309-0.29-0.463-0.654-0.463-1.096v-3.72
		c0-0.805-0.164-1.386-0.492-1.746c-0.328-0.359-0.797-0.54-1.402-0.54c-0.508,0-0.918,0.184-1.23,0.548
		c-0.313,0.365-0.467,0.885-0.467,1.559v5.428h-0.699c-0.496,0-0.895-0.145-1.191-0.433c-0.299-0.29-0.445-0.654-0.445-1.096v-4.052
		c0-0.498,0.082-0.987,0.254-1.47c0.17-0.481,0.426-0.911,0.764-1.29c0.34-0.379,0.779-0.684,1.314-0.914s1.168-0.344,1.896-0.344
		c0.557,0,1.076,0.089,1.564,0.269c0.486,0.177,0.912,0.443,1.277,0.798c0.365,0.354,0.656,0.788,0.871,1.303
		s0.322,1.105,0.322,1.767v5.461H254.795z"/>
	<path fill="#0A70B0" d="M264.775,39.762c-0.164-0.267-0.463-0.494-0.895-0.684c-0.428-0.19-0.979-0.284-1.646-0.284
		c-0.34,0-0.664,0.064-0.977,0.19c-0.311,0.128-0.584,0.305-0.814,0.532c-0.232,0.226-0.418,0.49-0.557,0.791
		c-0.139,0.299-0.209,0.625-0.209,0.976c0,0.856,0.232,1.547,0.691,2.076c0.463,0.53,1.094,0.796,1.898,0.796
		c0.674,0,1.213-0.092,1.619-0.271c0.404-0.184,0.689-0.382,0.854-0.604h0.086v1.079c0,0.564-0.254,1.031-0.758,1.396
		c-0.502,0.364-1.18,0.548-2.031,0.548c-0.648,0-1.262-0.117-1.842-0.354c-0.578-0.234-1.084-0.562-1.52-0.98
		c-0.436-0.42-0.785-0.912-1.045-1.482c-0.26-0.568-0.391-1.188-0.391-1.857c0-0.672,0.113-1.311,0.34-1.914
		c0.227-0.603,0.555-1.131,0.99-1.584c0.432-0.453,0.965-0.813,1.594-1.08c0.625-0.266,1.34-0.399,2.139-0.399
		c0.365,0,0.709,0.052,1.023,0.158c0.314,0.105,0.586,0.249,0.813,0.434c0.225,0.183,0.404,0.397,0.531,0.641
		c0.125,0.244,0.189,0.503,0.189,0.782v1.095H264.775z"/>
	<path fill="#0A70B0" d="M271.928,44.111c-0.443,1.035-0.838,1.88-1.186,2.534c-0.348,0.655-0.688,1.167-1.016,1.537
		c-0.328,0.373-0.664,0.63-1.006,0.774c-0.344,0.145-0.725,0.216-1.143,0.216c-0.441,0-0.824-0.13-1.15-0.389
		c-0.326-0.262-0.49-0.613-0.49-1.055v-0.452l1.326-0.082c0.209-0.014,0.389-0.047,0.539-0.106c0.15-0.061,0.285-0.154,0.408-0.281
		c0.123-0.128,0.236-0.298,0.348-0.511c0.111-0.212,0.232-0.486,0.361-0.826c-0.318-0.467-0.652-1.078-1.008-1.836
		c-0.354-0.759-0.689-1.558-1.004-2.398c-0.318-0.842-0.596-1.663-0.834-2.464c-0.238-0.801-0.398-1.479-0.484-2.034h1.242
		c0.322,0,0.611,0.099,0.873,0.297c0.262,0.199,0.424,0.465,0.484,0.798c0.158,0.907,0.404,1.827,0.734,2.761
		c0.33,0.936,0.713,1.818,1.141,2.649c0.189-0.44,0.379-0.936,0.576-1.485c0.193-0.549,0.377-1.118,0.547-1.703
		c0.17-0.585,0.316-1.167,0.438-1.742c0.123-0.574,0.211-1.099,0.268-1.575h1.012c0.367,0,0.641,0.087,0.822,0.264
		c0.182,0.175,0.273,0.452,0.273,0.831c0,0.165-0.043,0.413-0.121,0.744c-0.086,0.331-0.188,0.7-0.318,1.104
		c-0.125,0.405-0.27,0.834-0.432,1.287c-0.162,0.452-0.318,0.885-0.473,1.295c-0.152,0.41-0.293,0.781-0.426,1.111
		C272.096,43.708,271.996,43.953,271.928,44.111"/>
	<polygon fill="#0A70B0" points="158.762,51.442 159.643,51.442 161.684,56.275 163.807,51.442 163.963,51.442 166.104,56.275 
		168.182,51.442 169.074,51.442 166.182,58.103 166.021,58.103 163.893,53.334 161.764,58.103 161.605,58.103 	"/>
	<polygon fill="#0A70B0" points="170.432,51.442 171.313,51.442 173.354,56.275 175.479,51.442 175.633,51.442 177.771,56.275 
		179.854,51.442 180.744,51.442 177.852,58.103 177.691,58.103 175.563,53.334 173.436,58.103 173.275,58.103 	"/>
	<polygon fill="#0A70B0" points="182.102,51.442 182.982,51.442 185.023,56.275 187.146,51.442 187.305,51.442 189.441,56.275 
		191.521,51.442 192.414,51.442 189.521,58.103 189.363,58.103 187.232,53.334 185.104,58.103 184.943,58.103 	"/>
	<path fill="#0A70B0" d="M195.613,56.755c0.209,0,0.385,0.075,0.533,0.218c0.146,0.149,0.219,0.328,0.219,0.538
		c0,0.211-0.072,0.39-0.219,0.537c-0.148,0.148-0.324,0.224-0.533,0.224s-0.387-0.075-0.533-0.224
		c-0.148-0.147-0.221-0.326-0.221-0.537c0-0.21,0.072-0.389,0.221-0.538C195.227,56.83,195.404,56.755,195.613,56.755"/>
	<path fill="#0A70B0" d="M205,55.891l0.723,0.379c-0.238,0.465-0.512,0.84-0.82,1.125c-0.313,0.288-0.662,0.506-1.049,0.653
		c-0.389,0.148-0.828,0.226-1.316,0.226c-1.086,0-1.936-0.356-2.549-1.07c-0.613-0.711-0.92-1.517-0.92-2.413
		c0-0.847,0.262-1.597,0.779-2.257c0.656-0.843,1.539-1.263,2.641-1.263c1.135,0,2.041,0.431,2.717,1.291
		c0.484,0.609,0.729,1.368,0.736,2.277h-5.99c0.016,0.774,0.264,1.408,0.742,1.899c0.477,0.498,1.066,0.744,1.77,0.744
		c0.338,0,0.67-0.059,0.99-0.177s0.594-0.275,0.818-0.47C204.494,56.643,204.738,56.327,205,55.891 M205,54.099
		c-0.113-0.459-0.281-0.824-0.498-1.099c-0.221-0.271-0.51-0.491-0.869-0.659c-0.359-0.169-0.736-0.25-1.133-0.25
		c-0.654,0-1.217,0.21-1.686,0.632c-0.344,0.304-0.602,0.765-0.777,1.376H205z"/>
	<path fill="#0A70B0" d="M208.85,58.103v-9.231h0.855v3.715c0.359-0.44,0.76-0.771,1.205-0.989c0.441-0.218,0.93-0.326,1.461-0.326
		c0.941,0,1.746,0.341,2.41,1.025c0.668,0.684,1.002,1.513,1.002,2.487c0,0.961-0.338,1.784-1.01,2.467
		c-0.672,0.682-1.482,1.021-2.428,1.021c-0.543,0-1.033-0.116-1.473-0.351c-0.441-0.23-0.83-0.581-1.168-1.044v1.226H208.85z
		 M212.277,57.446c0.475,0,0.914-0.118,1.316-0.353c0.404-0.235,0.723-0.565,0.961-0.989c0.24-0.424,0.359-0.872,0.359-1.346
		c0-0.475-0.119-0.923-0.361-1.354c-0.24-0.428-0.563-0.763-0.967-0.999c-0.406-0.238-0.838-0.358-1.299-0.358
		c-0.467,0-0.912,0.12-1.334,0.358c-0.42,0.236-0.744,0.559-0.971,0.965c-0.227,0.401-0.338,0.855-0.338,1.363
		c0,0.771,0.252,1.417,0.76,1.933C210.91,57.188,211.535,57.446,212.277,57.446"/>
	<polygon fill="#0A70B0" points="217.881,51.442 218.785,51.442 221.076,56.567 223.295,51.442 224.209,51.442 220.236,60.536 
		219.332,60.536 220.613,57.595 	"/>
	<polygon fill="#0A70B0" points="227.316,48.97 228.172,48.97 228.172,51.442 229.533,51.442 229.533,52.183 228.172,52.183 
		228.172,58.103 227.316,58.103 227.316,52.183 226.146,52.183 226.146,51.442 227.316,51.442 	"/>
	<path fill="#0A70B0" d="M237.678,55.891l0.721,0.379c-0.236,0.465-0.51,0.84-0.82,1.125c-0.313,0.288-0.66,0.506-1.047,0.653
		c-0.389,0.148-0.828,0.226-1.318,0.226c-1.086,0-1.936-0.356-2.547-1.07c-0.613-0.711-0.92-1.517-0.92-2.413
		c0-0.847,0.26-1.597,0.775-2.257c0.66-0.843,1.539-1.263,2.643-1.263c1.137,0,2.043,0.431,2.721,1.291
		c0.48,0.609,0.727,1.368,0.734,2.277h-5.992c0.018,0.774,0.264,1.408,0.742,1.899c0.477,0.498,1.068,0.744,1.771,0.744
		c0.338,0,0.668-0.059,0.988-0.177c0.322-0.118,0.594-0.275,0.818-0.47C237.174,56.643,237.414,56.327,237.678,55.891
		 M237.678,54.099c-0.115-0.459-0.283-0.824-0.5-1.099c-0.219-0.271-0.508-0.491-0.867-0.659c-0.359-0.169-0.738-0.25-1.135-0.25
		c-0.652,0-1.215,0.21-1.684,0.632c-0.344,0.304-0.604,0.765-0.779,1.376H237.678z"/>
	<path fill="#0A70B0" d="M242.412,56.755c0.209,0,0.385,0.075,0.533,0.218c0.146,0.149,0.219,0.328,0.219,0.538
		c0,0.211-0.072,0.39-0.219,0.537c-0.148,0.148-0.324,0.224-0.533,0.224s-0.385-0.075-0.531-0.224
		c-0.148-0.147-0.221-0.326-0.221-0.537c0-0.21,0.072-0.389,0.221-0.538C242.027,56.83,242.203,56.755,242.412,56.755"/>
	<path fill="#0A70B0" d="M259.924,51.443v6.66h-0.844v-1.146c-0.361,0.436-0.764,0.765-1.209,0.984s-0.938,0.33-1.465,0.33
		c-0.943,0-1.748-0.343-2.416-1.025c-0.666-0.683-1-1.515-1-2.495c0-0.956,0.336-1.775,1.01-2.459
		c0.672-0.681,1.482-1.021,2.43-1.021c0.547,0,1.043,0.116,1.484,0.347c0.441,0.234,0.83,0.583,1.166,1.048v-1.223H259.924z
		 M256.498,52.098c-0.475,0-0.916,0.116-1.316,0.351c-0.404,0.234-0.727,0.564-0.965,0.988c-0.238,0.425-0.357,0.871-0.357,1.346
		c0,0.467,0.119,0.916,0.359,1.344s0.564,0.763,0.971,0.999c0.404,0.238,0.84,0.358,1.305,0.358c0.469,0,0.914-0.12,1.334-0.354
		c0.418-0.236,0.742-0.557,0.967-0.96c0.227-0.404,0.34-0.858,0.34-1.364c0-0.771-0.254-1.413-0.762-1.931
		C257.867,52.358,257.242,52.098,256.498,52.098"/>
	<path fill="#0A70B0" d="M250.139,52.171l-0.551,0.568c-0.457-0.444-0.904-0.666-1.344-0.666c-0.279,0-0.516,0.092-0.715,0.275
		c-0.197,0.186-0.297,0.397-0.297,0.642c0,0.217,0.082,0.422,0.246,0.62c0.162,0.199,0.506,0.432,1.029,0.701
		c0.639,0.332,1.072,0.65,1.299,0.956c0.225,0.31,0.34,0.66,0.34,1.048c0,0.544-0.193,1.009-0.578,1.389
		c-0.385,0.379-0.863,0.568-1.439,0.568c-0.385,0-0.752-0.083-1.1-0.251c-0.35-0.167-0.639-0.399-0.867-0.69l0.539-0.612
		c0.434,0.494,0.9,0.74,1.391,0.74c0.344,0,0.637-0.11,0.877-0.332c0.242-0.218,0.363-0.478,0.363-0.774
		c0-0.247-0.082-0.463-0.24-0.657c-0.158-0.188-0.521-0.424-1.078-0.709c-0.602-0.31-1.012-0.615-1.229-0.917
		s-0.324-0.648-0.324-1.036c0-0.504,0.172-0.926,0.518-1.262c0.348-0.332,0.781-0.5,1.311-0.5
		C248.9,51.271,249.518,51.571,250.139,52.171"/>
	<polygon fill="#0A70B0" points="262.994,49.005 263.85,49.005 263.85,51.478 263.85,52.218 263.85,58.138 262.994,58.138 
		262.994,52.218 262.994,51.478 	"/>
	<path fill="#0A70B0" d="M272.794,55.891l0.721,0.379c-0.236,0.465-0.51,0.84-0.82,1.125c-0.313,0.288-0.66,0.506-1.047,0.653
		c-0.389,0.148-0.828,0.226-1.318,0.226c-1.086,0-1.936-0.356-2.547-1.07c-0.613-0.711-0.92-1.517-0.92-2.413
		c0-0.847,0.26-1.597,0.775-2.257c0.66-0.843,1.539-1.263,2.643-1.263c1.137,0,2.043,0.431,2.721,1.291
		c0.48,0.609,0.727,1.368,0.734,2.277h-5.992c0.018,0.774,0.264,1.408,0.742,1.899c0.477,0.498,1.068,0.744,1.771,0.744
		c0.338,0,0.668-0.059,0.988-0.177c0.322-0.118,0.594-0.275,0.818-0.47C272.29,56.643,272.53,56.327,272.794,55.891 M272.794,54.099
		c-0.115-0.459-0.283-0.824-0.5-1.099c-0.219-0.271-0.508-0.491-0.867-0.659c-0.359-0.169-0.738-0.25-1.135-0.25
		c-0.652,0-1.215,0.21-1.684,0.632c-0.344,0.304-0.604,0.765-0.779,1.376H272.794z"/>
	<linearGradient id="SVGID_1_" gradientUnits="userSpaceOnUse" x1="2.9819" y1="42.1396" x2="75.1189" y2="42.1396">
		<stop  offset="0" style="stop-color:#00E5FF"/>
		<stop  offset="0.5273" style="stop-color:#0B99F8"/>
		<stop  offset="1" style="stop-color:#0A70B0"/>
	</linearGradient>
	<path fill="url(#SVGID_1_)" d="M74.205,42.141c0,19.666-15.943,35.61-35.612,35.61c-19.667,0-35.611-15.944-35.611-35.61
		c0-19.668,15.943-35.612,35.611-35.612C58.262,6.529,74.205,22.473,74.205,42.141"/>
	<path fill="#036287" d="M49.479,76.056L27.683,59.509l-4.429-12.115l-0.841-10.086L32.08,25.96l15.969,1.401l3.78-1.401
		L74.205,43.05C74.205,43.05,74.585,67.316,49.479,76.056"/>
	<path fill="#FFFFFF" d="M52.576,47.938c-2.258,5.276-7.501,8.983-13.595,8.983c-8.151,0-14.78-6.629-14.78-14.78
		c0-8.15,6.629-14.782,14.78-14.782c6.161,0,11.451,3.79,13.668,9.16h6.224c-2.454-8.672-10.443-15.047-19.892-15.047
		c-11.396,0-20.668,9.272-20.668,20.669c0,11.395,9.272,20.669,20.668,20.669c9.385,0,17.327-6.289,19.84-14.872H52.576z"/>
	<rect x="23.092" y="39.323" fill="#FFFFFF" width="11.048" height="6.105"/>
	<rect x="35.885" y="18.68" fill="#FFFFFF" width="1.453" height="47.395"/>
	<rect x="39.592" y="18.606" fill="#FFFFFF" width="1.455" height="47.491"/>
</g>
</svg>
